<svg width="180" height="180" viewBox="0 0 180 180" fill="none" xmlns="http://www.w3.org/2000/svg">
<path d="M18.7682 28.7909H101.533V53.3496H44.7855V82.6311H93.9922V107.19H44.7855V159.141H18.7682V28.7909Z" fill="white"/>
<path d="M82.9913 139.494C89.1524 136.931 94.9824 133.633 100.355 129.67C90.344 114.935 84.6881 95.2883 84.6881 73.1854C84.6881 39.5589 99.7706 20.8566 122.394 20.8566C144.075 20.8566 158.215 37.8587 158.215 66.9513C158.047 89.8185 149.835 111.893 135.026 129.293C141.062 133.293 148.151 135.398 155.387 135.338H161.232V159.141H154.068C140.413 159.265 127.097 154.883 116.173 146.673C108.883 151.934 100.885 156.132 92.4179 159.141L82.9913 139.494ZM118.812 110.779C127.949 97.9935 132.891 82.6767 132.952 66.9513C132.952 52.405 128.804 44.6596 122.017 44.6596C114.665 44.6596 109.951 53.1607 109.951 71.4853C109.726 85.107 112.772 98.5834 118.831 110.779H118.812Z" fill="white"/>
</svg>
