<svg width="83" height="16" viewBox="0 0 83 16" fill="none" xmlns="http://www.w3.org/2000/svg">
<g clip-path="url(#clip0_3301_4)">
<path d="M-3.8147e-06 0.903101H9.43959V3.69842H2.96734V7.03131H8.57949V9.82663H2.96734V15.7398H-3.8147e-06V0.903101Z" fill="black"/>
<path d="M10.7276 13.5036C11.4303 13.2118 12.0952 12.8364 12.708 12.3854C11.5662 10.7082 10.9211 8.47198 10.9211 5.95619C10.9211 2.12874 12.6413 1.90735e-06 15.2216 1.90735e-06C17.6944 1.90735e-06 19.3071 1.93522 19.3071 5.24661C19.2878 7.84939 18.3513 10.362 16.6623 12.3424C17.3507 12.7977 18.1592 13.0373 18.9845 13.0305H19.6511V15.7398H18.834C17.2767 15.7539 15.7579 15.2552 14.512 14.3207C13.6806 14.9195 12.7684 15.3973 11.8027 15.7398L10.7276 13.5036ZM14.8131 10.2352C15.8551 8.7799 16.4187 7.0365 16.4257 5.24661C16.4257 3.59092 15.9527 2.70932 15.1786 2.70932C14.34 2.70932 13.8024 3.67693 13.8024 5.76267C13.7768 7.31313 14.1241 8.84704 14.8152 10.2352H14.8131Z" fill="black"/>
<path d="M29.5229 4.77355V6.06369C29.0723 5.56667 28.5208 5.17148 27.9052 4.90451C27.2897 4.63754 26.6243 4.50492 25.9535 4.51551C22.9001 4.51551 20.5972 6.9883 20.5972 10.2567C20.5972 13.5251 22.9001 15.9978 25.9535 15.9978C26.6881 16.0072 27.4147 15.8449 28.0754 15.5239C28.7362 15.2028 29.3128 14.7319 29.7594 14.1486V15.7398H32.3182V4.77355H29.5229ZM26.4846 13.2885C25.885 13.2885 25.2988 13.1107 24.8002 12.7776C24.3016 12.4444 23.913 11.9709 23.6835 11.4169C23.4541 10.8629 23.394 10.2533 23.511 9.6652C23.628 9.07708 23.9168 8.53685 24.3408 8.11284C24.7648 7.68882 25.305 7.40008 25.8931 7.28309C26.4813 7.16611 27.0909 7.22615 27.6449 7.45562C28.1989 7.68509 28.6724 8.07368 29.0055 8.57227C29.3386 9.07086 29.5165 9.65704 29.5165 10.2567C29.5268 10.6576 29.4555 11.0565 29.3067 11.429C29.158 11.8016 28.9351 12.1399 28.6515 12.4236C28.3679 12.7072 28.0295 12.9301 27.657 13.0788C27.2845 13.2275 26.8856 13.2989 26.4846 13.2885Z" fill="black"/>
<path d="M44.6392 8.77302V15.7269H41.8438V9.67612C41.8438 8.19244 40.8977 7.22484 39.4571 7.22484C37.9067 7.22484 36.8768 8.21395 36.8768 9.71912V15.7398H34.0814V4.77355H36.8768V5.9992C37.3156 5.51421 37.8546 5.13035 38.4564 4.87417C39.0583 4.618 39.7085 4.49562 40.3623 4.51552C42.9405 4.51552 44.6392 6.19272 44.6392 8.77302Z" fill="black"/>
<path d="M54.4658 4.77355V6.0637C54.0151 5.56667 53.4636 5.17148 52.8481 4.90451C52.2326 4.63754 51.5672 4.50492 50.8964 4.51551C47.843 4.51551 45.5423 6.9883 45.5423 10.2567C45.5423 13.5251 47.843 15.9978 50.8964 15.9978C51.6312 16.0066 52.3578 15.844 53.0188 15.523C53.6798 15.202 54.257 14.7315 54.7045 14.1486V15.7291H57.2633V4.7628L54.4658 4.77355ZM51.4275 13.2885C51.0187 13.2958 50.6129 13.2185 50.2355 13.0613C49.8581 12.9041 49.5173 12.6706 49.2346 12.3753C48.9518 12.08 48.7332 11.7294 48.5926 11.3456C48.4519 10.9617 48.3922 10.5529 48.4171 10.1449C48.4406 9.36224 48.7681 8.61955 49.3302 8.07438C49.8922 7.52922 50.6445 7.22448 51.4275 7.22483C52.2316 7.22483 53.0028 7.54425 53.5713 8.11284C54.1399 8.68142 54.4593 9.45258 54.4593 10.2567C54.4593 11.0608 54.1399 11.8319 53.5713 12.4005C53.0028 12.9691 52.2316 13.2885 51.4275 13.2885Z" fill="black"/>
<path d="M69.5799 8.77303V15.7269H66.7846V9.67612C66.7846 8.19245 65.8385 7.22484 64.3978 7.22484C62.8496 7.22484 61.8175 8.21395 61.8175 9.71913V15.7398H59.0222V4.77356H61.8175V5.9992C62.2561 5.51449 62.7947 5.1308 63.3962 4.87464C63.9976 4.61847 64.6475 4.49594 65.3009 4.51552C67.8812 4.51552 69.5799 6.19273 69.5799 8.77303Z" fill="black"/>
<path d="M70.526 10.2567C70.526 6.9883 73.0633 4.51552 76.4177 4.51552C79.7721 4.51552 82.3094 6.9883 82.3094 10.2567C82.3094 13.5251 79.7721 15.9978 76.4177 15.9978C73.0633 15.9978 70.526 13.5251 70.526 10.2567ZM79.428 10.2567C79.4238 9.66223 79.2436 9.08233 78.9103 8.59012C78.5769 8.09791 78.1053 7.71541 77.5549 7.49086C77.0044 7.26631 76.3999 7.20976 75.8173 7.32833C75.2348 7.44691 74.7004 7.73528 74.2816 8.15713C73.8627 8.57898 73.5781 9.11541 73.4637 9.69876C73.3493 10.2821 73.4101 10.8863 73.6386 11.4351C73.8671 11.9839 74.2529 12.4528 74.7475 12.7827C75.2421 13.1125 75.8232 13.2885 76.4177 13.2885C76.8173 13.2978 77.2147 13.2255 77.5856 13.0761C77.9564 12.9268 78.2929 12.7034 78.5746 12.4197C78.8563 12.136 79.0772 11.7979 79.2239 11.426C79.3707 11.0542 79.4401 10.6563 79.428 10.2567Z" fill="black"/>
</g>
<defs>
<clipPath id="clip0_3301_4">
<rect width="82.3094" height="16" fill="white"/>
</clipPath>
</defs>
</svg>
