<?xml version="1.0" encoding="utf-8"?>
<!-- Generator: Adobe Illustrator 26.0.1, SVG Export Plug-In . SVG Version: 6.00 Build 0)  -->
<svg version="1.1" id="Calque_1" xmlns="http://www.w3.org/2000/svg" xmlns:xlink="http://www.w3.org/1999/xlink" x="0px" y="0px"
	 viewBox="0 0 32 32" style="enable-background:new 0 0 32 32;" xml:space="preserve">
<path d="M15.2,24.2l9.9-9.9c-1.7-0.7-3.2-1.7-4.4-3c-1.3-1.3-2.3-2.8-3-4.4l-9.9,9.9C7,17.6,6.6,18,6.3,18.4c-0.4,0.5-0.7,1-1,1.6
	c-0.2,0.5-0.4,1-0.7,2l-1.8,5.4c-0.2,0.7,0.2,1.5,0.9,1.8c0.3,0.1,0.6,0.1,0.9,0l5.4-1.8c1-0.3,1.5-0.5,2-0.7c0.6-0.3,1.1-0.6,1.6-1
	C14,25.4,14.4,25,15.2,24.2 M27.8,11.6c2-2,2-5.4,0-7.4s-5.4-2-7.4,0l0,0l-1.2,1.2l0.1,0.1c0.6,1.7,1.5,3.2,2.8,4.4
	c1.3,1.3,2.8,2.3,4.6,2.8L27.8,11.6z"/>
</svg>
