<?xml version="1.0" encoding="utf-8"?>
<!-- Generator: Adobe Illustrator 26.0.1, SVG Export Plug-In . SVG Version: 6.00 Build 0)  -->
<svg version="1.1" id="Calque_1" xmlns="http://www.w3.org/2000/svg" xmlns:xlink="http://www.w3.org/1999/xlink" x="0px" y="0px"
	 viewBox="0 0 32 32" style="enable-background:new 0 0 32 32;" xml:space="preserve">
<style type="text/css">
	.st0{fill-rule:evenodd;clip-rule:evenodd;}
</style>
<path d="M13,16c0-1.7,1.3-3,3-3s3,1.3,3,3s-1.3,3-3,3S13,17.7,13,16L13,16"/>
<path class="st0" d="M2.7,16c0,2.2,0.6,2.9,1.7,4.4c2.3,2.9,6.1,6.3,11.6,6.3s9.4-3.3,11.6-6.3c1.1-1.5,1.7-2.2,1.7-4.4
	c0-2.2-0.6-2.9-1.7-4.4C25.4,8.7,21.6,5.3,16,5.3S6.6,8.7,4.4,11.6C3.2,13.1,2.7,13.8,2.7,16 M16,11c-2.8,0-5,2.2-5,5s2.2,5,5,5
	s5-2.2,5-5S18.8,11,16,11"/>
</svg>
