<?xml version="1.0" encoding="utf-8"?>
<!-- Generator: Adobe Illustrator 26.0.1, SVG Export Plug-In . SVG Version: 6.00 Build 0)  -->
<svg version="1.1" id="Calque_1" xmlns="http://www.w3.org/2000/svg" xmlns:xlink="http://www.w3.org/1999/xlink" x="0px" y="0px"
	 viewBox="0 0 32 32" style="enable-background:new 0 0 32 32;" xml:space="preserve">
<style type="text/css">
	.st0{fill:#ED4732;}
	.st1{fill-rule:evenodd;clip-rule:evenodd;fill:#ED4732;}
</style>
<path class="st0" d="M4,8.7c0-0.5,0.4-1,1-1h6.4c0-1.1,0.1-2.7,1.2-3.7c0.9-0.9,2.1-1.4,3.4-1.4c1.3,0,2.5,0.5,3.4,1.4
	c1.1,1.1,1.2,2.6,1.2,3.7H27c0.5,0,1,0.4,1,1c0,0.5-0.4,1-1,1c0,0,0,0,0,0H5C4.4,9.7,4,9.2,4,8.7C4,8.7,4,8.7,4,8.7"/>
<path class="st1" d="M15.5,29.3h1.1c3.7,0,5.6,0,6.8-1.2c1.2-1.2,1.3-3.1,1.6-7l0.4-5.6c0.1-2.1,0.2-3.2-0.4-3.8
	c-0.6-0.7-1.6-0.7-3.7-0.7H10.8c-2,0-3.1,0-3.7,0.7s-0.5,1.7-0.4,3.8l0.4,5.6c0.2,3.9,0.4,5.8,1.6,7C9.9,29.3,11.8,29.3,15.5,29.3
	 M13.7,16.3c-0.1-0.6-0.5-1-1.1-0.9c-0.6,0.1-1,0.6-0.9,1.2l0.7,7c0.1,0.6,0.5,1,1.1,0.9c0.6-0.1,1-0.6,0.9-1.2L13.7,16.3z
	 M19.4,15.3c0.5,0.1,1,0.6,0.9,1.2l-0.7,7c-0.1,0.6-0.5,1-1.1,0.9c-0.6-0.1-1-0.6-0.9-1.2l0.7-7C18.4,15.7,18.9,15.3,19.4,15.3"/>
</svg>
